# xmcd CD Database Entry
#
# Track frame offsets:
# 150
# 11924
# 31928
# 46127
# 58601
# 76865
# 87671
# 101385
# 113374
# 126486
# 153755
# 177609
# 202505
# 213409
#
# Disc length: 3065 seconds
#
# Revision: 2
# Processed by: cddbd v1.4PL0 Copyright (c) Steve Scherf et al.
# Submitted via: tcd 2.0b
#
DISCID=ab0bf70e
DTITLE=Albert Järvinen - Ride On
DYEAR=1900
DGENRE=
TTITLE0=Teenage Nervous Breakdown
TTITLE1=Hot Matter
TTITLE2=Sister Sue
TTITLE3=Let's Have A Ball (In The Fat Man's Valley)
TTITLE4=Freezing - Like Crying - Playing
TTITLE5=Don't Be Cruel
TTITLE6=The Train Kept A-Rollin'
TTITLE7=Goin' To Louisiana
TTITLE8=Patchy Moss
TTITLE9=Whorehouse Queen
TTITLE10=Specii Quattour
TTITLE11=Cry Before I Go
TTITLE12=Buzz The Jerk
TTITLE13=Mama Keep Your Big Mouth Shut
EXTD=
EXTT0=
EXTT1=
EXTT2=
EXTT3=
EXTT4=
EXTT5=
EXTT6=
EXTT7=
EXTT8=
EXTT9=
EXTT10=
EXTT11=
EXTT12=
EXTT13=
PLAYORDER=
